<svg xmlns="http://www.w3.org/2000/svg" xmlns:xlink="http://www.w3.org/1999/xlink" version="1.1" x="0px" y="0px" viewBox="0 0 100 125" style="enable-background:new 0 0 100 100;" xml:space="preserve"><path d="M46,5.1v38.4c0,1.4-1.1,2.5-2.5,2.5H5c-1.4,0-2.5-1.1-2.5-2.5V7.1c0-2.5,2-4.5,4.5-4.5h36.5C44.9,2.6,46,3.7,46,5.1z   M93,2.6H56.5c-1.4,0-2.5,1.1-2.5,2.5v38.4c0,1.4,1.1,2.5,2.5,2.5H95c1.4,0,2.5-1.1,2.5-2.5V7.1C97.5,4.6,95.5,2.6,93,2.6z M43.5,54  H5c-1.4,0-2.5,1.1-2.5,2.5v36.6c0,2.5,2,4.5,4.5,4.5h36.5c1.4,0,2.5-1.1,2.5-2.5V56.5C46,55.1,44.9,54,43.5,54z M95,54H56.5  c-1.4,0-2.5,1.1-2.5,2.5v38.6c0,1.4,1.1,2.5,2.5,2.5H93c2.5,0,4.5-2,4.5-4.5V56.5C97.5,55.1,96.4,54,95,54z"/><text x="0" y="115" fill="#000000" font-size="5px" font-weight="bold" font-family="'Helvetica Neue', Helvetica, Arial-Unicode, Arial, Sans-serif">Created by Özcan Çukurova</text><text x="0" y="120" fill="#000000" font-size="5px" font-weight="bold" font-family="'Helvetica Neue', Helvetica, Arial-Unicode, Arial, Sans-serif">from the Noun Project</text></svg>