<svg width="90" height="90" viewBox="0 0 90 90" fill="none" xmlns="http://www.w3.org/2000/svg">
<path d="M45.3975 62.46C51.1292 62.46 56.7322 60.7604 61.4979 57.576C66.2636 54.3916 69.9781 49.8656 72.1715 44.5702C74.3649 39.2748 74.9388 33.4479 73.8206 27.8263C72.7024 22.2047 69.9424 17.041 65.8894 12.9881C61.8365 8.93513 56.6728 6.17506 51.0512 5.05686C45.4296 3.93866 39.6027 4.51256 34.3073 6.70598C29.0119 8.89941 24.4859 12.6139 21.3015 17.3796C18.1171 22.1453 16.4175 27.7483 16.4175 33.48C16.4246 41.1638 19.4802 48.5308 24.9134 53.9641C30.3467 59.3973 37.7137 62.4529 45.3975 62.46ZM45.3975 9.89101C50.0651 9.89101 54.6279 11.2752 58.5088 13.8686C62.3896 16.462 65.4142 20.148 67.2 24.4605C68.9859 28.773 69.4527 33.5183 68.5414 38.0961C67.6301 42.6739 65.3817 46.8786 62.0806 50.1785C58.7795 53.4784 54.5739 55.7252 49.9957 56.6347C45.4175 57.5442 40.6725 57.0756 36.3607 55.2881C32.0489 53.5007 28.364 50.4747 25.7721 46.5928C23.1802 42.711 21.7977 38.1476 21.7995 33.48C21.8066 27.2245 24.2954 21.2273 28.7196 16.8048C33.1438 12.3823 39.1419 9.89578 45.3975 9.89101Z" fill="black"/>
<path d="M35.2365 37.026H45.3975C46.1136 37.026 46.8003 36.7416 47.3067 36.2352C47.813 35.7289 48.0975 35.0421 48.0975 34.326V18.288C48.0975 17.9334 48.0276 17.5823 47.8919 17.2548C47.7563 16.9272 47.5574 16.6295 47.3067 16.3788C47.0559 16.1281 46.7583 15.9292 46.4307 15.7935C46.1031 15.6579 45.752 15.588 45.3975 15.588C45.0429 15.588 44.6918 15.6579 44.3642 15.7935C44.0366 15.9292 43.739 16.1281 43.4883 16.3788C43.2376 16.6295 43.0387 16.9272 42.903 17.2548C42.7673 17.5823 42.6975 17.9334 42.6975 18.288V31.644H35.2275C34.5114 31.644 33.8246 31.9285 33.3183 32.4348C32.8119 32.9412 32.5275 33.6279 32.5275 34.344C32.5275 35.0601 32.8119 35.7469 33.3183 36.2532C33.8246 36.7596 34.5114 37.044 35.2275 37.044L35.2365 37.026Z" fill="black"/>
<path d="M71.8935 70.974C70.4503 70.9833 69.0426 71.4222 67.85 72.235C66.6574 73.0477 65.734 74.1972 65.1975 75.537H51.6975C51.164 74.1816 50.2348 73.0182 49.0309 72.1982C47.827 71.3782 46.4041 70.9397 44.9475 70.9397C43.4909 70.9397 42.068 71.3782 40.864 72.1982C39.6601 73.0182 38.731 74.1816 38.1975 75.537H24.8055C24.1781 73.9703 23.0246 72.6709 21.5433 71.8622C20.062 71.0535 18.3453 70.7859 16.6881 71.1053C15.0309 71.4248 13.5368 72.3114 12.4622 73.6129C11.3877 74.9143 10.8 76.5493 10.8 78.237C10.8 79.9247 11.3877 81.5597 12.4622 82.8612C13.5368 84.1626 15.0309 85.0492 16.6881 85.3687C18.3453 85.6882 20.062 85.4206 21.5433 84.6118C23.0246 83.8031 24.1781 82.5038 24.8055 80.937H38.2425C38.7724 82.2961 39.7003 83.4635 40.9046 84.2866C42.109 85.1097 43.5337 85.55 44.9925 85.55C46.4512 85.55 47.876 85.1097 49.0803 84.2866C50.2847 83.4635 51.2125 82.2961 51.7425 80.937H65.1975C65.6778 82.1696 66.4856 83.2476 67.5338 84.0547C68.5819 84.8618 69.8306 85.3672 71.1451 85.5166C72.4595 85.6659 73.7897 85.4534 74.9922 84.902C76.1947 84.3506 77.2237 83.4812 77.9683 82.3878C78.7128 81.2943 79.1446 80.0183 79.217 78.6974C79.2893 77.3765 78.9996 76.0609 78.379 74.8926C77.7584 73.7244 76.8305 72.7478 75.6954 72.0683C74.5604 71.3888 73.2614 71.0322 71.9385 71.037L71.8935 70.974Z" fill="black"/>
</svg>
