<svg width="35" height="35" viewBox="0 0 56 53" fill="none" xmlns="http://www.w3.org/2000/svg">
<rect width="53" height="56" transform="matrix(0 -1 1 0 0 53)" fill="white"/>
<path d="M28 41.9583C30.59 41.9583 32.6667 43.9238 32.6667 46.375C32.6667 47.2485 32.393 48.1025 31.8802 48.8288C31.3674 49.5551 30.6386 50.1212 29.7859 50.4555C28.9332 50.7898 27.9948 50.8772 27.0896 50.7068C26.1844 50.5364 25.3528 50.1157 24.7002 49.4981C24.0475 48.8804 23.6031 48.0934 23.423 47.2367C23.243 46.3799 23.3354 45.4919 23.6886 44.6848C24.0418 43.8778 24.6399 43.188 25.4074 42.7027C26.1748 42.2174 27.077 41.9583 28 41.9583ZM4.66669 44.1667H18.6667V48.5833H4.66669V44.1667ZM51.3334 48.5833H37.3334V44.1667H51.3334V48.5833ZM14 2.98023e-06H42C44.59 2.98023e-06 46.6667 1.96542 46.6667 4.41667V30.9167C46.6667 32.088 46.175 33.2114 45.2999 34.0397C44.4247 34.868 43.2377 35.3333 42 35.3333H32.6667L28 39.75L23.3334 35.3333H14C12.7623 35.3333 11.5754 34.868 10.7002 34.0397C9.82502 33.2114 9.33335 32.088 9.33335 30.9167L9.33335 4.41667C9.33335 1.96542 11.41 2.98023e-06 14 2.98023e-06ZM14 4.41667L14 30.9167H25.27L28 33.5004L30.73 30.9167L42 30.9167V4.41667H14ZM36.1667 16.5625H39.6667V19.875H36.1667V16.5625ZM24.5 20.9792C25.7967 21.3882 24.5 24.2917 24.5 24.2917H23.3334C19.46 24.2917 16.3334 21.3325 16.3334 17.6667C16.3334 14.0008 19.46 11.0417 23.3334 11.0417C25.5967 11.0417 27.72 12.1458 28.9567 13.8904L29.4 14.5529C30.3334 15.8117 31.78 16.5625 33.3667 16.5625H33.8334V19.875L33.3667 19.875C30.59 19.875 28 18.55 26.4834 16.3638L26.04 15.7233C25.4334 14.8621 24.43 14.3542 23.3334 14.3542C21.42 14.3542 19.8334 15.8338 19.8334 17.6667C19.8334 19.4996 21.3967 20.9792 23.3334 20.9792C23.3334 20.9792 24.0678 20.8428 24.5 20.9792Z" fill="black"/>
<rect x="15.75" y="27.3281" width="17.3906" height="24.5" transform="rotate(-90 15.75 27.3281)" fill="white"/>
<path d="M25.6667 25.5339H29.1667V28.8464H25.6667V25.5339ZM28 6.76302C34.2417 7.00594 36.96 12.9684 33.25 17.4403C32.2817 18.5445 30.7183 19.2732 29.9483 20.2007C29.1667 21.1172 29.1667 22.2214 29.1667 23.3255H25.6667C25.6667 21.4816 25.6667 19.9247 26.4483 18.8205C27.2183 17.7164 28.7817 17.0649 29.75 16.3361C32.5733 13.8628 31.8733 10.3626 28 10.0755C27.0717 10.0755 26.1815 10.4245 25.5251 11.0457C24.8687 11.6669 24.5 12.5095 24.5 13.388H21C21 11.631 21.7375 9.94587 23.0503 8.70344C24.363 7.46101 26.1435 6.76302 28 6.76302Z" fill="black"/>
</svg>
