<svg width="50" height="50" viewBox="0 0 50 50" fill="none" xmlns="http://www.w3.org/2000/svg">
<g clip-path="url(#clip0_65_2)">
<g filter="url(#filter0_d_65_2)">
<path fill-rule="evenodd" clip-rule="evenodd" d="M38.8277 24.2371C37.8283 24.4937 36.8008 24.6235 35.7692 24.6233H35.7385V25.2936C35.7385 28.1015 36.1785 30.9094 37.0985 33.6061L38.24 37.0442H8.60923V37.0071L9.74769 33.5691C10.6379 30.8882 11.098 28.0824 11.1108 25.2565V18.4576C11.1108 16.7184 11.48 15.0195 12.1785 13.4657C12.8769 11.8779 13.8708 10.4724 15.16 9.32641C16.4492 8.1464 17.96 7.25676 19.5785 6.74089C21.2338 6.18487 22.9631 5.99953 24.6554 6.18487L25.0246 6.24047C25.5843 5.2347 26.2813 4.31245 27.0954 3.50051C26.3909 3.31214 25.6743 3.1728 24.9508 3.08349C22.8154 2.86108 20.6431 3.08349 18.5815 3.7847C16.52 4.44884 14.6431 5.5578 13.0615 7.03744C11.4721 8.47892 10.2053 10.2424 9.34461 12.2116C8.47968 14.1799 8.02824 16.3062 8.01846 18.4576V25.2534C8.01395 27.741 7.61618 30.212 6.84 32.5744L5 38.0389L6.47385 40.0715H17.2585C17.2585 41.6963 17.92 43.284 19.0615 44.4332C20.2 45.5761 21.7846 46.2433 23.4062 46.2433C25.0246 46.2433 26.6062 45.5792 27.7477 44.4332C28.8892 43.2871 29.5538 41.6963 29.5538 40.0715H40.3385L41.8092 38.0389L40.0062 32.5713C39.2274 30.1979 38.8297 27.7152 38.8277 25.2163V24.2371ZM23.4062 43.2192C23.8113 43.2164 24.2118 43.133 24.5846 42.974C24.9575 42.8149 25.2953 42.5833 25.5785 42.2925C25.8689 42.0115 26.0976 41.6725 26.2497 41.2974C26.4018 40.9224 26.4739 40.5195 26.4615 40.1147H20.3138C20.3138 40.9271 20.6431 41.7025 21.2338 42.2956C21.5175 42.5855 21.8554 42.8164 22.2282 42.9749C22.601 43.1334 23.0013 43.2164 23.4062 43.2192Z" fill="black"/>
<path d="M35.7692 21.5341C36.9814 21.5341 38.1818 21.2944 39.3017 20.8287C40.4216 20.363 41.4392 19.6804 42.2964 18.8199C43.1535 17.9594 43.8335 16.9378 44.2973 15.8134C44.7612 14.6891 45 13.484 45 12.2671C45 11.0501 44.7612 9.84505 44.2973 8.72072C43.8335 7.59638 43.1535 6.57479 42.2964 5.71426C41.4392 4.85374 40.4216 4.17113 39.3017 3.70541C38.1818 3.2397 36.9814 3 35.7692 3C33.3211 3 30.9732 3.97635 29.2421 5.71426C27.511 7.45218 26.5385 9.80929 26.5385 12.2671C26.5385 14.7249 27.511 17.082 29.2421 18.8199C30.9732 20.5578 33.3211 21.5341 35.7692 21.5341Z" fill="#FF3232"/>
</g>
</g>
<defs>
<filter id="filter0_d_65_2" x="1" y="3" width="48" height="51.2433" filterUnits="userSpaceOnUse" color-interpolation-filters="sRGB">
<feFlood flood-opacity="0" result="BackgroundImageFix"/>
<feColorMatrix in="SourceAlpha" type="matrix" values="0 0 0 0 0 0 0 0 0 0 0 0 0 0 0 0 0 0 127 0" result="hardAlpha"/>
<feOffset dy="4"/>
<feGaussianBlur stdDeviation="2"/>
<feComposite in2="hardAlpha" operator="out"/>
<feColorMatrix type="matrix" values="0 0 0 0 0 0 0 0 0 0 0 0 0 0 0 0 0 0 0.25 0"/>
<feBlend mode="normal" in2="BackgroundImageFix" result="effect1_dropShadow_65_2"/>
<feBlend mode="normal" in="SourceGraphic" in2="effect1_dropShadow_65_2" result="shape"/>
</filter>
<clipPath id="clip0_65_2">
<rect width="50" height="50" fill="white"/>
</clipPath>
</defs>
</svg>
