<svg width="24" height="24" viewBox="0 0 24 24" fill="none" xmlns="http://www.w3.org/2000/svg">
<path d="M17.502 2.99998C17.5021 3.13131 17.4763 3.26138 17.426 3.38271C17.3758 3.50404 17.302 3.61424 17.209 3.70698L8.913 12L17.209 20.293C17.3045 20.3852 17.3807 20.4956 17.4331 20.6176C17.4855 20.7396 17.5131 20.8708 17.5142 21.0036C17.5154 21.1364 17.4901 21.268 17.4398 21.3909C17.3895 21.5138 17.3153 21.6255 17.2214 21.7194C17.1275 21.8133 17.0158 21.8875 16.893 21.9378C16.7701 21.9881 16.6384 22.0134 16.5056 22.0122C16.3728 22.0111 16.2416 21.9835 16.1196 21.9311C15.9976 21.8787 15.8872 21.8025 15.795 21.707L6.791 12.707C6.61055 12.5158 6.51003 12.2629 6.51003 12C6.51003 11.7371 6.61055 11.4842 6.791 11.293L15.795 2.29298C15.9349 2.15317 16.113 2.05796 16.307 2.0194C16.5009 1.98083 16.702 2.00063 16.8847 2.0763C17.0674 2.15197 17.2235 2.28011 17.3334 2.44452C17.4433 2.60893 17.502 2.80223 17.502 2.99998Z" fill="black"/>
</svg>
