<svg width="108" height="108" viewBox="0 0 108 108" fill="none" xmlns="http://www.w3.org/2000/svg">
<g filter="url(#filter0_d_39_4)">
<rect x="4" width="100" height="100" rx="15" fill="white"/>
<path d="M54 82.7273C58.2978 82.7273 62.5535 81.8808 66.5242 80.2361C70.4948 78.5914 74.1027 76.1807 77.1417 73.1417C80.1807 70.1027 82.5914 66.4948 84.2361 62.5242C85.8808 58.5535 86.7273 54.2978 86.7273 50C86.7273 45.7022 85.8808 41.4465 84.2361 37.4758C82.5914 33.5052 80.1807 29.8973 77.1417 26.8583C74.1027 23.8193 70.4948 21.4086 66.5242 19.7639C62.5535 18.1192 58.2978 17.2727 54 17.2727C45.3202 17.2727 36.9959 20.7208 30.8583 26.8583C24.7208 32.9959 21.2727 41.3202 21.2727 50C21.2727 58.6798 24.7208 67.0041 30.8583 73.1417C36.9959 79.2792 45.3202 82.7273 54 82.7273ZM94 50C94 72.0909 76.0909 90 54 90C31.9091 90 14 72.0909 14 50C14 27.9091 31.9091 10 54 10C76.0909 10 94 27.9091 94 50ZM64.9091 66.0509L50.3636 51.5055V26.3636H57.6364V48.4945L70.0509 60.9091L64.9091 66.0509Z" fill="black"/>
</g>
<defs>
<filter id="filter0_d_39_4" x="0" y="0" width="108" height="108" filterUnits="userSpaceOnUse" color-interpolation-filters="sRGB">
<feFlood flood-opacity="0" result="BackgroundImageFix"/>
<feColorMatrix in="SourceAlpha" type="matrix" values="0 0 0 0 0 0 0 0 0 0 0 0 0 0 0 0 0 0 127 0" result="hardAlpha"/>
<feOffset dy="4"/>
<feGaussianBlur stdDeviation="2"/>
<feComposite in2="hardAlpha" operator="out"/>
<feColorMatrix type="matrix" values="0 0 0 0 0 0 0 0 0 0 0 0 0 0 0 0 0 0 0.25 0"/>
<feBlend mode="normal" in2="BackgroundImageFix" result="effect1_dropShadow_39_4"/>
<feBlend mode="normal" in="SourceGraphic" in2="effect1_dropShadow_39_4" result="shape"/>
</filter>
</defs>
</svg>
