<svg width="100" height="100" viewBox="0 0 100 100" fill="none" xmlns="http://www.w3.org/2000/svg">
<rect width="100" height="100" rx="15" fill="white"/>
<path d="M46.2105 7.36842V43.7474C46.2105 45.0737 45.1684 46.1158 43.8421 46.1158H7.36842C6.04211 46.1158 5 45.0737 5 43.7474V9.26316C5 6.89474 6.89474 5 9.26316 5H43.8421C45.1684 5 46.2105 6.04211 46.2105 7.36842ZM90.7368 5H56.1579C54.8316 5 53.7895 6.04211 53.7895 7.36842V43.7474C53.7895 45.0737 54.8316 46.1158 56.1579 46.1158H92.6316C93.9579 46.1158 95 45.0737 95 43.7474V9.26316C95 6.89474 93.1053 5 90.7368 5ZM43.8421 53.6947H7.36842C6.04211 53.6947 5 54.7368 5 56.0632V90.7368C5 93.1053 6.89474 95 9.26316 95H43.8421C45.1684 95 46.2105 93.9579 46.2105 92.6316V56.0632C46.2105 54.7368 45.1684 53.6947 43.8421 53.6947ZM92.6316 53.6947H56.1579C54.8316 53.6947 53.7895 54.7368 53.7895 56.0632V92.6316C53.7895 93.9579 54.8316 95 56.1579 95H90.7368C93.1053 95 95 93.1053 95 90.7368V56.0632C95 54.7368 93.9579 53.6947 92.6316 53.6947Z" fill="black"/>
</svg>
