<svg width="108" height="108" viewBox="0 0 108 108" fill="none" xmlns="http://www.w3.org/2000/svg">
<g filter="url(#filter0_d_31_2)">
<rect x="4" width="100" height="100" rx="15" fill="white"/>
<path d="M50.2579 13.0263V44.1505C50.2579 45.2853 49.3663 46.1768 48.2316 46.1768H17.0263C15.8916 46.1768 15 45.2853 15 44.1505V14.6474C15 12.6211 16.6211 11 18.6474 11H48.2316C49.3663 11 50.2579 11.8916 50.2579 13.0263ZM88.3526 11H58.7684C57.6337 11 56.7421 11.8916 56.7421 13.0263V44.1505C56.7421 45.2853 57.6337 46.1768 58.7684 46.1768H89.9737C91.1084 46.1768 92 45.2853 92 44.1505V14.6474C92 12.6211 90.3789 11 88.3526 11ZM48.2316 52.6611H17.0263C15.8916 52.6611 15 53.5526 15 54.6874V84.3526C15 86.3789 16.6211 88 18.6474 88H48.2316C49.3663 88 50.2579 87.1084 50.2579 85.9737V54.6874C50.2579 53.5526 49.3663 52.6611 48.2316 52.6611ZM89.9737 52.6611H58.7684C57.6337 52.6611 56.7421 53.5526 56.7421 54.6874V85.9737C56.7421 87.1084 57.6337 88 58.7684 88H88.3526C90.3789 88 92 86.3789 92 84.3526V54.6874C92 53.5526 91.1084 52.6611 89.9737 52.6611Z" fill="black"/>
</g>
<defs>
<filter id="filter0_d_31_2" x="0" y="0" width="108" height="108" filterUnits="userSpaceOnUse" color-interpolation-filters="sRGB">
<feFlood flood-opacity="0" result="BackgroundImageFix"/>
<feColorMatrix in="SourceAlpha" type="matrix" values="0 0 0 0 0 0 0 0 0 0 0 0 0 0 0 0 0 0 127 0" result="hardAlpha"/>
<feOffset dy="4"/>
<feGaussianBlur stdDeviation="2"/>
<feComposite in2="hardAlpha" operator="out"/>
<feColorMatrix type="matrix" values="0 0 0 0 0 0 0 0 0 0 0 0 0 0 0 0 0 0 0.25 0"/>
<feBlend mode="normal" in2="BackgroundImageFix" result="effect1_dropShadow_31_2"/>
<feBlend mode="normal" in="SourceGraphic" in2="effect1_dropShadow_31_2" result="shape"/>
</filter>
</defs>
</svg>
