<svg width="128" height="128" viewBox="0 0 128 128" fill="none" xmlns="http://www.w3.org/2000/svg">
<rect width="128" height="128" rx="15" fill="white"/>
<path d="M64 96L39.64 61.6C35.6527 56.8923 33.085 51.1486 32.2358 45.038C31.3867 38.9273 32.291 32.7012 34.8436 27.0846C37.3962 21.4681 41.492 16.6923 46.6538 13.3136C51.8157 9.93479 57.8313 8.09207 64 8C72.551 8.0845 80.7199 11.5544 86.7178 17.6497C92.7156 23.7449 96.0533 31.9688 96 40.52C96.0033 47.9797 93.4636 55.2178 88.8 61.04L64 96ZM64 16C57.5674 16.0739 51.4271 18.6975 46.9272 23.2948C42.4274 27.8921 39.936 34.0873 40 40.52C40.0268 46.3913 42.1391 52.062 45.96 56.52L64 82.08L82.52 56C86.0404 51.6058 87.9716 46.1504 88 40.52C88.064 34.0873 85.5726 27.8921 81.0728 23.2948C76.5729 18.6975 70.4326 16.0739 64 16Z" fill="black" stroke="black" stroke-width="3"/>
<path d="M64 44C68.4183 44 72 40.4183 72 36C72 31.5817 68.4183 28 64 28C59.5817 28 56 31.5817 56 36C56 40.4183 59.5817 44 64 44Z" fill="black" stroke="black" stroke-width="2"/>
<path d="M112 48H104V56H112V112H16V56H24V48H16C13.8783 48 11.8434 48.8429 10.3431 50.3431C8.84285 51.8434 8 53.8783 8 56V112C8 114.122 8.84285 116.157 10.3431 117.657C11.8434 119.157 13.8783 120 16 120H112C114.122 120 116.157 119.157 117.657 117.657C119.157 116.157 120 114.122 120 112V56C120 53.8783 119.157 51.8434 117.657 50.3431C116.157 48.8429 114.122 48 112 48Z" fill="black" stroke="black" stroke-width="2"/>
</svg>
