<svg width="128" height="128" viewBox="0 0 128 128" fill="none" xmlns="http://www.w3.org/2000/svg">
<rect width="128" height="128" rx="15" fill="white"/>
<path d="M74.6667 21.3333C74.6667 24.1623 73.5429 26.8754 71.5425 28.8758C69.5421 30.8762 66.829 32 64 32C61.1711 32 58.458 30.8762 56.4576 28.8758C54.4572 26.8754 53.3334 24.1623 53.3334 21.3333C53.3334 18.5044 54.4572 15.7913 56.4576 13.7909C58.458 11.7905 61.1711 10.6667 64 10.6667C66.829 10.6667 69.5421 11.7905 71.5425 13.7909C73.5429 15.7913 74.6667 18.5044 74.6667 21.3333Z" stroke="black" stroke-width="8"/>
<path d="M55.5947 94.7093L59.0667 96.6933L55.6 94.704L55.5947 94.7093ZM64 80L67.472 78.016C67.122 77.4042 66.6166 76.8958 66.0069 76.5421C65.3972 76.1885 64.7049 76.0023 64 76.0023C63.2952 76.0023 62.6029 76.1885 61.9932 76.5421C61.3835 76.8958 60.878 77.4042 60.528 78.016L64 80ZM72.4054 94.704L68.9334 96.688L72.4 94.704H72.4054ZM30.9867 61.6533L42.592 65.5253L45.1147 57.936L33.52 54.064L30.9867 61.6533ZM44.352 69.264L37.7067 86.5493L45.1734 89.424L51.824 72.1333L44.3574 69.264H44.352ZM94.48 54.064L82.8747 57.936L85.408 65.5253L97.0027 61.6533L94.48 54.064ZM76.1707 72.1333L82.8267 89.424L90.288 86.5493L83.6374 69.264L76.1707 72.1333ZM59.0614 96.688L67.4667 81.984L60.5227 78.016L52.1174 92.72L59.0614 96.688ZM90.6134 38.2133L80.496 40.3787L82.1707 48.2027L92.2934 46.032L90.6134 38.2133ZM47.52 40.3787L37.3867 38.208L35.712 46.0267L45.8347 48.1973L47.5094 40.3733L47.52 40.3787ZM60.5334 81.9893L68.9387 96.6987L75.8827 92.7253L67.4774 78.0213L60.5334 81.9893ZM80.496 40.3787L79.3974 40.6133L81.0187 48.448L82.1707 48.2027L80.496 40.3787ZM45.8347 48.1973L46.9867 48.4427L48.608 40.6027L47.5094 40.3733L45.8347 48.1973ZM79.3974 40.6133C69.2417 42.714 58.7636 42.7034 48.608 40.6027L46.9867 48.4427C58.2101 50.764 69.7899 50.764 81.0134 48.4427L79.3974 40.6027V40.6133ZM48.7734 102.667C53.0294 102.667 56.96 100.384 59.0667 96.6933L52.1174 92.72C51.7805 93.3111 51.2985 93.8026 50.7102 94.1445C50.122 94.4864 49.4537 94.6665 48.7734 94.6667V102.667ZM82.8267 89.424C83.0519 90.0083 83.1314 90.6387 83.0583 91.2606C82.9853 91.8825 82.7618 92.4772 82.4074 92.9934C82.0529 93.5096 81.5781 93.9317 81.0239 94.2233C80.4697 94.5148 79.8529 94.667 79.2267 94.6667V102.667C81.1515 102.667 83.0476 102.199 84.751 101.303C86.4544 100.406 87.9139 99.1085 89.0034 97.5217C90.093 95.9349 90.7798 94.1066 91.0045 92.1949C91.2293 90.2832 90.9799 88.3456 90.288 86.5493L82.8267 89.424ZM82.88 57.936C81.696 58.3307 80.4374 58.72 79.4134 59.3493L83.616 66.16C83.5627 66.1867 83.6054 66.1547 83.9147 66.0373C84.24 65.9147 84.6774 65.7707 85.408 65.5253L82.88 57.936ZM83.6374 69.264C83.4437 68.7749 83.2642 68.2824 83.088 67.7867C82.9814 67.472 82.9814 67.4187 82.992 67.472L75.0667 68.56C75.2267 69.7493 75.728 70.9707 76.176 72.1333L83.6374 69.264ZM79.4134 59.3493C77.8745 60.2986 76.6446 61.6744 75.8729 63.3095C75.1013 64.9447 74.8212 66.7687 75.0667 68.56L82.992 67.472C82.958 67.2164 82.9989 66.9564 83.1096 66.7236C83.2204 66.4907 83.3963 66.2949 83.616 66.16L79.4134 59.3493ZM97.3334 50.1067C97.3334 50.9823 97.0578 51.8358 96.5457 52.5461C96.0336 53.2564 95.3109 53.7874 94.48 54.064L97.0027 61.6533C99.4267 60.8461 101.541 59.2965 103.035 57.2241C104.529 55.1517 105.333 52.6616 105.333 50.1067H97.3334ZM37.7067 86.5493C37.0148 88.3456 36.7707 90.2832 36.9955 92.1949C37.2202 94.1066 37.907 95.9349 38.9966 97.5217C40.0862 99.1085 41.5457 100.406 43.2491 101.303C44.9525 102.199 46.8485 102.667 48.7734 102.667V94.6667C48.1472 94.667 47.5303 94.5148 46.9761 94.2233C46.422 93.9317 45.9471 93.5096 45.5927 92.9934C45.2382 92.4772 45.0148 91.8825 44.9417 91.2606C44.8687 90.6387 44.9482 90.0083 45.1734 89.424L37.7067 86.5493ZM42.592 65.5253C43.3227 65.7653 43.76 65.9147 44.0854 66.0373C44.3947 66.1547 44.432 66.1867 44.384 66.16L48.5867 59.3493C47.5627 58.72 46.304 58.3307 45.12 57.936L42.592 65.5253ZM51.8187 72.1387C52.272 70.9653 52.768 69.7493 52.9334 68.56L45.008 67.472C45.0134 67.4187 45.0134 67.472 44.912 67.7867C44.7358 68.2823 44.5509 68.7749 44.3574 69.264L51.824 72.1333L51.8187 72.1387ZM44.384 66.16C44.6038 66.2949 44.7797 66.4907 44.8904 66.7236C45.0012 66.9564 45.042 67.2164 45.008 67.472L52.9334 68.56C53.1788 66.7687 52.8987 64.9447 52.1271 63.3095C51.3555 61.6744 50.1255 60.2986 48.5867 59.3493L44.384 66.16ZM22.6667 50.1067C22.6667 55.3493 26.0214 60 30.9867 61.6533L33.52 54.064C32.6892 53.7874 31.9665 53.2564 31.4544 52.5461C30.9422 51.8358 30.6667 50.9823 30.6667 50.1067H22.6667ZM30.6667 50.1067C30.6667 47.4507 33.12 45.4667 35.712 46.0267L37.3867 38.208C35.6121 37.827 33.78 37.8478 32.0145 38.2688C30.2489 38.6898 28.5998 39.5003 27.1881 40.6411C25.7763 41.7819 24.6376 43.2239 23.8552 44.8618C23.0729 46.4996 22.6668 48.2916 22.6667 50.1067H30.6667ZM68.9334 96.688C69.9704 98.5026 71.4686 100.016 73.2762 101.065C75.0839 102.114 77.1367 102.667 79.2267 102.667V94.6667C77.84 94.6667 76.56 93.92 75.8774 92.72L68.9334 96.688ZM105.333 50.1067C105.333 48.2922 104.927 46.5007 104.145 44.8634C103.363 43.226 102.225 41.7843 100.814 40.6436C99.4025 39.5029 97.7542 38.6922 95.9893 38.2708C94.2244 37.8494 92.3876 37.8333 90.6134 38.2133L92.288 46.0267C92.8963 45.8962 93.5261 45.9035 94.1312 46.0479C94.7363 46.1924 95.3014 46.4704 95.7852 46.8616C96.2689 47.2528 96.659 47.7473 96.9269 48.3087C97.1948 48.8702 97.3337 49.4846 97.3334 50.1067H105.333Z" fill="black"/>
<path opacity="0.5" d="M103.755 77.3333C112.197 81.5787 117.333 87.1893 117.333 93.3333C117.333 106.587 93.456 117.333 64 117.333C34.544 117.333 10.6667 106.587 10.6667 93.3333C10.6667 87.1893 15.8027 81.5787 24.2454 77.3333" stroke="black" stroke-width="8" stroke-linecap="round"/>
</svg>
