<svg width="136" height="136" viewBox="0 0 136 136" fill="none" xmlns="http://www.w3.org/2000/svg">
<g filter="url(#filter0_d_31_8)">
<rect x="4" width="128" height="128" rx="15" fill="white"/>
<path d="M78.6667 21.3333C78.6667 24.1623 77.5429 26.8754 75.5425 28.8758C73.5421 30.8762 70.829 32 68 32C65.1711 32 62.458 30.8762 60.4576 28.8758C58.4572 26.8754 57.3334 24.1623 57.3334 21.3333C57.3334 18.5044 58.4572 15.7913 60.4576 13.7909C62.458 11.7905 65.1711 10.6667 68 10.6667C70.829 10.6667 73.5421 11.7905 75.5425 13.7909C77.5429 15.7913 78.6667 18.5044 78.6667 21.3333Z" stroke="black" stroke-width="8"/>
<path d="M59.5947 94.7093L63.0667 96.6933L59.6 94.704L59.5947 94.7093ZM68 80L71.472 78.016C71.122 77.4042 70.6166 76.8958 70.0069 76.5421C69.3972 76.1885 68.7049 76.0023 68 76.0023C67.2952 76.0023 66.6029 76.1885 65.9932 76.5421C65.3835 76.8958 64.878 77.4042 64.528 78.016L68 80ZM76.4054 94.704L72.9334 96.688L76.4 94.704H76.4054ZM34.9867 61.6533L46.592 65.5253L49.1147 57.936L37.52 54.064L34.9867 61.6533ZM48.352 69.264L41.7067 86.5493L49.1734 89.424L55.824 72.1333L48.3574 69.264H48.352ZM98.48 54.064L86.8747 57.936L89.408 65.5253L101.003 61.6533L98.48 54.064ZM80.1707 72.1333L86.8267 89.424L94.288 86.5493L87.6374 69.264L80.1707 72.1333ZM63.0614 96.688L71.4667 81.984L64.5227 78.016L56.1174 92.72L63.0614 96.688ZM94.6134 38.2133L84.496 40.3787L86.1707 48.2027L96.2934 46.032L94.6134 38.2133ZM51.52 40.3787L41.3867 38.208L39.712 46.0267L49.8347 48.1973L51.5094 40.3733L51.52 40.3787ZM64.5334 81.9893L72.9387 96.6987L79.8827 92.7253L71.4774 78.0213L64.5334 81.9893ZM84.496 40.3787L83.3974 40.6133L85.0187 48.448L86.1707 48.2027L84.496 40.3787ZM49.8347 48.1973L50.9867 48.4427L52.608 40.6027L51.5094 40.3733L49.8347 48.1973ZM83.3974 40.6133C73.2417 42.714 62.7636 42.7034 52.608 40.6027L50.9867 48.4427C62.2101 50.764 73.7899 50.764 85.0134 48.4427L83.3974 40.6027V40.6133ZM52.7734 102.667C57.0294 102.667 60.96 100.384 63.0667 96.6933L56.1174 92.72C55.7805 93.3111 55.2985 93.8026 54.7102 94.1445C54.122 94.4864 53.4537 94.6665 52.7734 94.6667V102.667ZM86.8267 89.424C87.0519 90.0083 87.1314 90.6387 87.0583 91.2606C86.9853 91.8825 86.7618 92.4772 86.4074 92.9934C86.0529 93.5096 85.5781 93.9317 85.0239 94.2233C84.4697 94.5148 83.8529 94.667 83.2267 94.6667V102.667C85.1515 102.667 87.0476 102.199 88.751 101.303C90.4544 100.406 91.9139 99.1085 93.0034 97.5217C94.093 95.9349 94.7798 94.1066 95.0045 92.1949C95.2293 90.2832 94.9799 88.3456 94.288 86.5493L86.8267 89.424ZM86.88 57.936C85.696 58.3307 84.4374 58.72 83.4134 59.3493L87.616 66.16C87.5627 66.1867 87.6054 66.1547 87.9147 66.0373C88.24 65.9147 88.6774 65.7707 89.408 65.5253L86.88 57.936ZM87.6374 69.264C87.4437 68.7749 87.2642 68.2824 87.088 67.7867C86.9814 67.472 86.9814 67.4187 86.992 67.472L79.0667 68.56C79.2267 69.7493 79.728 70.9707 80.176 72.1333L87.6374 69.264ZM83.4134 59.3493C81.8745 60.2986 80.6446 61.6744 79.8729 63.3095C79.1013 64.9447 78.8212 66.7687 79.0667 68.56L86.992 67.472C86.958 67.2164 86.9989 66.9564 87.1096 66.7236C87.2204 66.4907 87.3963 66.2949 87.616 66.16L83.4134 59.3493ZM101.333 50.1067C101.333 50.9823 101.058 51.8358 100.546 52.5461C100.034 53.2564 99.3109 53.7874 98.48 54.064L101.003 61.6533C103.427 60.8461 105.541 59.2965 107.035 57.2241C108.529 55.1517 109.333 52.6616 109.333 50.1067H101.333ZM41.7067 86.5493C41.0148 88.3456 40.7707 90.2832 40.9955 92.1949C41.2202 94.1066 41.907 95.9349 42.9966 97.5217C44.0862 99.1085 45.5457 100.406 47.2491 101.303C48.9525 102.199 50.8485 102.667 52.7734 102.667V94.6667C52.1472 94.667 51.5303 94.5148 50.9761 94.2233C50.422 93.9317 49.9471 93.5096 49.5927 92.9934C49.2382 92.4772 49.0148 91.8825 48.9417 91.2606C48.8687 90.6387 48.9482 90.0083 49.1734 89.424L41.7067 86.5493ZM46.592 65.5253C47.3227 65.7653 47.76 65.9147 48.0854 66.0373C48.3947 66.1547 48.432 66.1867 48.384 66.16L52.5867 59.3493C51.5627 58.72 50.304 58.3307 49.12 57.936L46.592 65.5253ZM55.8187 72.1387C56.272 70.9653 56.768 69.7493 56.9334 68.56L49.008 67.472C49.0134 67.4187 49.0134 67.472 48.912 67.7867C48.7358 68.2823 48.5509 68.7749 48.3574 69.264L55.824 72.1333L55.8187 72.1387ZM48.384 66.16C48.6038 66.2949 48.7797 66.4907 48.8904 66.7236C49.0012 66.9564 49.042 67.2164 49.008 67.472L56.9334 68.56C57.1788 66.7687 56.8987 64.9447 56.1271 63.3095C55.3555 61.6744 54.1255 60.2986 52.5867 59.3493L48.384 66.16ZM26.6667 50.1067C26.6667 55.3493 30.0214 60 34.9867 61.6533L37.52 54.064C36.6892 53.7874 35.9665 53.2564 35.4544 52.5461C34.9422 51.8358 34.6667 50.9823 34.6667 50.1067H26.6667ZM34.6667 50.1067C34.6667 47.4507 37.12 45.4667 39.712 46.0267L41.3867 38.208C39.6121 37.827 37.78 37.8478 36.0145 38.2688C34.2489 38.6898 32.5998 39.5003 31.1881 40.6411C29.7763 41.7819 28.6376 43.2239 27.8552 44.8618C27.0729 46.4996 26.6668 48.2916 26.6667 50.1067H34.6667ZM72.9334 96.688C73.9704 98.5026 75.4686 100.016 77.2762 101.065C79.0839 102.114 81.1367 102.667 83.2267 102.667V94.6667C81.84 94.6667 80.56 93.92 79.8774 92.72L72.9334 96.688ZM109.333 50.1067C109.333 48.2922 108.927 46.5007 108.145 44.8634C107.363 43.226 106.225 41.7843 104.814 40.6436C103.403 39.5029 101.754 38.6922 99.9893 38.2708C98.2244 37.8494 96.3876 37.8333 94.6134 38.2133L96.288 46.0267C96.8963 45.8962 97.5261 45.9035 98.1312 46.0479C98.7363 46.1924 99.3014 46.4704 99.7852 46.8616C100.269 47.2528 100.659 47.7473 100.927 48.3087C101.195 48.8702 101.334 49.4846 101.333 50.1067H109.333Z" fill="black"/>
<path opacity="0.5" d="M107.755 77.3333C116.197 81.5787 121.333 87.1893 121.333 93.3333C121.333 106.587 97.456 117.333 68 117.333C38.544 117.333 14.6667 106.587 14.6667 93.3333C14.6667 87.1893 19.8027 81.5787 28.2454 77.3333" stroke="black" stroke-width="8" stroke-linecap="round"/>
</g>
<defs>
<filter id="filter0_d_31_8" x="0" y="0" width="136" height="136" filterUnits="userSpaceOnUse" color-interpolation-filters="sRGB">
<feFlood flood-opacity="0" result="BackgroundImageFix"/>
<feColorMatrix in="SourceAlpha" type="matrix" values="0 0 0 0 0 0 0 0 0 0 0 0 0 0 0 0 0 0 127 0" result="hardAlpha"/>
<feOffset dy="4"/>
<feGaussianBlur stdDeviation="2"/>
<feComposite in2="hardAlpha" operator="out"/>
<feColorMatrix type="matrix" values="0 0 0 0 0 0 0 0 0 0 0 0 0 0 0 0 0 0 0.25 0"/>
<feBlend mode="normal" in2="BackgroundImageFix" result="effect1_dropShadow_31_8"/>
<feBlend mode="normal" in="SourceGraphic" in2="effect1_dropShadow_31_8" result="shape"/>
</filter>
</defs>
</svg>
