<svg width="108" height="108" viewBox="0 0 108 108" fill="none" xmlns="http://www.w3.org/2000/svg">
<g filter="url(#filter0_d_36_28)">
<rect x="4" width="100" height="100" rx="15" fill="white"/>
<path d="M75.1193 62.0373L75.1193 62.0374C71.5023 67.4508 66.3617 71.6695 60.3467 74.1611C54.3318 76.6524 47.7136 77.3045 41.3284 76.0343C34.9431 74.7641 29.0779 71.6293 24.4745 67.0256L24.4744 67.0255C19.871 62.4223 16.736 56.5569 15.4659 50.1719C14.1958 43.7864 14.8476 37.1681 17.339 31.1534L17.339 31.1533C19.8304 25.1386 24.0494 19.9977 29.4626 16.3808L28.1228 14.3758L29.4626 16.3808C34.8756 12.7639 41.2398 10.8333 47.75 10.8333C56.48 10.8333 64.8528 14.3013 71.0256 20.4744L71.0256 20.4744C77.1988 26.6475 80.6667 35.0199 80.6667 43.75C80.6667 50.2602 78.7362 56.6243 75.1193 62.0373Z" stroke="black" stroke-width="5" stroke-linecap="round" stroke-linejoin="round"/>
<path d="M72.7966 68.7958L95.6675 91.6667" stroke="black" stroke-width="5" stroke-linecap="round" stroke-linejoin="round"/>
</g>
<defs>
<filter id="filter0_d_36_28" x="0" y="0" width="108" height="108" filterUnits="userSpaceOnUse" color-interpolation-filters="sRGB">
<feFlood flood-opacity="0" result="BackgroundImageFix"/>
<feColorMatrix in="SourceAlpha" type="matrix" values="0 0 0 0 0 0 0 0 0 0 0 0 0 0 0 0 0 0 127 0" result="hardAlpha"/>
<feOffset dy="4"/>
<feGaussianBlur stdDeviation="2"/>
<feComposite in2="hardAlpha" operator="out"/>
<feColorMatrix type="matrix" values="0 0 0 0 0 0 0 0 0 0 0 0 0 0 0 0 0 0 0.25 0"/>
<feBlend mode="normal" in2="BackgroundImageFix" result="effect1_dropShadow_36_28"/>
<feBlend mode="normal" in="SourceGraphic" in2="effect1_dropShadow_36_28" result="shape"/>
</filter>
</defs>
</svg>
